<mxfile host="app.diagrams.net" modified="2022-04-15T21:33:00.019Z" agent="5.0 (X11; Linux x86_64) AppleWebKit/537.36 (KHTML, like Gecko) Chrome/90.0.4430.212 Safari/537.36" etag="N9A4g5lf3sHobbRnzicj" version="17.4.3" type="github">
  <diagram id="g_uBtgWGdsZ8J2s2HgY-" name="Page-1">
    <mxGraphModel dx="413" dy="207" grid="1" gridSize="10" guides="1" tooltips="1" connect="1" arrows="1" fold="1" page="1" pageScale="1" pageWidth="827" pageHeight="1169" math="0" shadow="0">
      <root>
        <mxCell id="0" />
        <mxCell id="1" parent="0" />
        <mxCell id="209vXb02PxXr-r3k41Mn-1" value="" style="rounded=0;whiteSpace=wrap;html=1;strokeColor=none;strokeWidth=2;fillColor=#030303;opacity=70;" vertex="1" parent="1">
          <mxGeometry x="120" y="40" width="320" height="100" as="geometry" />
        </mxCell>
        <mxCell id="skTyjtJtrHfDFfwtRElK-1" value="" style="rounded=0;whiteSpace=wrap;html=1;strokeWidth=2;fillColor=none;strokeColor=#FF8000;" parent="1" vertex="1">
          <mxGeometry x="120" y="40" width="320" height="100" as="geometry" />
        </mxCell>
        <mxCell id="skTyjtJtrHfDFfwtRElK-4" value="" style="rounded=0;whiteSpace=wrap;html=1;strokeWidth=2;fillColor=none;strokeColor=#FF8000;" parent="1" vertex="1">
          <mxGeometry x="120" y="40" width="60" height="100" as="geometry" />
        </mxCell>
        <mxCell id="skTyjtJtrHfDFfwtRElK-3" value="" style="sketch=0;outlineConnect=0;fontColor=#232F3E;gradientColor=none;fillColor=#FFFF00;strokeColor=none;dashed=0;verticalLabelPosition=bottom;verticalAlign=top;align=center;html=1;fontSize=12;fontStyle=0;aspect=fixed;pointerEvents=1;shape=mxgraph.aws4.question;" parent="1" vertex="1">
          <mxGeometry x="137.51999999999998" y="66.25" width="24.97" height="47.5" as="geometry" />
        </mxCell>
      </root>
    </mxGraphModel>
  </diagram>
</mxfile>
